<svg width="201" height="19" viewBox="0 0 201 19" fill="none" xmlns="http://www.w3.org/2000/svg">
<path d="M67.3576 14.0734H37.6876C37.1354 14.0734 36.5848 14.1536 36.0607 14.3276C35.528 14.5048 34.8901 14.608 34.2047 14.608C33.5194 14.608 32.8815 14.5048 32.3488 14.3276C31.8247 14.1536 31.2741 14.0734 30.7219 14.0734H0.797117C0.356697 14.0734 0 14.4301 0 14.8705V16.5344C0 16.9748 0.356697 17.3315 0.797117 17.3315H30.2745C31.019 18.7408 31.9732 18.9999 34.2043 18.9999C36.4355 18.9999 37.3897 18.7408 38.1343 17.3315H67.3572C67.7976 17.3315 68.1543 16.9748 68.1543 16.5344V14.8705C68.1543 14.4301 67.7976 14.0734 67.3572 14.0734H67.3576Z" fill="#FBB040"/>
<path d="M64.7476 5.96874C64.695 5.78767 64.556 5.64475 64.3757 5.58907C63.1401 5.20355 58.0198 3.76391 50.5171 3.76391C49.9209 3.76391 49.3438 3.78261 48.7838 3.81882C55.2869 1.91189 61.1117 1.72108 62.5237 1.70395C62.6958 1.70161 62.8263 1.54858 62.8009 1.37802L62.6452 0.325837C62.6241 0.181756 62.4972 0.0770054 62.352 0.0836253C39.1479 1.12879 34.204 10.9337 34.204 10.9337C34.204 10.9337 29.2601 1.12918 6.0561 0.0836253C5.91086 0.0770054 5.78391 0.181756 5.76288 0.325837L5.60712 1.37802C5.58181 1.54819 5.71226 1.70161 5.88438 1.70395C7.29637 1.72108 13.1211 1.91189 19.6242 3.81882C19.0643 3.783 18.4872 3.76391 17.891 3.76391C10.3883 3.76391 5.26794 5.20394 4.03235 5.58907C3.85245 5.64514 3.71304 5.78805 3.66047 5.96874L1.57831 13.1627H66.8286L64.7464 5.96874H64.7476Z" fill="#FBB040"/>
<path d="M75.1189 19C74.6965 19 74.3291 18.8439 74.0169 18.5317C73.7231 18.2195 73.5762 17.8522 73.5762 17.4298V1.59383C73.5762 1.17143 73.7231 0.804124 74.0169 0.491914C74.3291 0.179706 74.6965 0.0236015 75.1189 0.0236015H76.0004C76.4228 0.0236015 76.7901 0.179706 77.1023 0.491914C77.4145 0.804124 77.5706 1.17143 77.5706 1.59383V15.5565C77.5706 15.7218 77.6441 15.8045 77.791 15.8045H84.8708C85.2932 15.8045 85.6513 15.9606 85.9452 16.2728C86.2574 16.5666 86.4135 16.9247 86.4135 17.3471V17.4298C86.4135 17.8522 86.2574 18.2195 85.9452 18.5317C85.6513 18.8439 85.2932 19 84.8708 19H75.1189Z" fill="#FBB040"/>
<path d="M93.2178 6.68604C92.2811 6.68604 91.5557 6.95233 91.0415 7.48492C90.5456 7.99915 90.2334 8.83477 90.1049 9.99178C90.1049 10.1387 90.1783 10.2122 90.3252 10.2122H95.7246C95.8716 10.2122 95.945 10.1387 95.945 9.99178C95.8716 7.78795 94.9625 6.68604 93.2178 6.68604ZM93.9065 18.9999C91.5006 18.9999 89.6457 18.3755 88.3418 17.1267C87.0562 15.8595 86.4135 14.0046 86.4135 11.562C86.4135 9.1378 86.992 7.29209 88.149 6.02489C89.306 4.75769 90.9772 4.12408 93.1627 4.12408C97.2398 4.12408 99.3334 6.4381 99.4436 11.0661C99.462 11.5069 99.3059 11.8742 98.9753 12.1681C98.6447 12.4619 98.259 12.6088 97.8183 12.6088H90.2977C90.1324 12.6088 90.0681 12.6915 90.1049 12.8568C90.2334 14.0872 90.6375 14.9871 91.317 15.5564C92.0149 16.1074 93.0249 16.3829 94.3472 16.3829C95.1737 16.3829 96.0919 16.2451 97.102 15.9697C97.4326 15.8778 97.7356 15.9329 98.0111 16.135C98.3049 16.337 98.4519 16.6124 98.4519 16.9614C98.4519 17.3838 98.3233 17.7603 98.0662 18.0909C97.8274 18.4031 97.5061 18.5959 97.102 18.6694C96.0736 18.8897 95.0084 18.9999 93.9065 18.9999Z" fill="#FBB040"/>
<path d="M107.607 6.68604C106.67 6.68604 105.945 6.95233 105.431 7.48492C104.935 7.99915 104.623 8.83477 104.494 9.99178C104.494 10.1387 104.568 10.2122 104.715 10.2122H110.114C110.261 10.2122 110.334 10.1387 110.334 9.99178C110.261 7.78795 109.352 6.68604 107.607 6.68604ZM108.296 18.9999C105.89 18.9999 104.035 18.3755 102.731 17.1267C101.446 15.8595 100.803 14.0046 100.803 11.562C100.803 9.1378 101.381 7.29209 102.538 6.02489C103.695 4.75769 105.366 4.12408 107.552 4.12408C111.629 4.12408 113.723 6.4381 113.833 11.0661C113.851 11.5069 113.695 11.8742 113.365 12.1681C113.034 12.4619 112.648 12.6088 112.208 12.6088H104.687C104.522 12.6088 104.457 12.6915 104.494 12.8568C104.623 14.0872 105.027 14.9871 105.706 15.5564C106.404 16.1074 107.414 16.3829 108.737 16.3829C109.563 16.3829 110.481 16.2451 111.491 15.9697C111.822 15.8778 112.125 15.9329 112.4 16.135C112.694 16.337 112.841 16.6124 112.841 16.9614C112.841 17.3838 112.713 17.7603 112.455 18.0909C112.217 18.4031 111.895 18.5959 111.491 18.6694C110.463 18.8897 109.398 18.9999 108.296 18.9999Z" fill="#FBB040"/>
<path d="M133.019 12.0914C133.019 16.6971 130.725 19 126.138 19C121.55 19 119.256 16.6971 119.256 12.0914V1.52379C119.256 1.13145 119.401 0.790284 119.689 0.500293C119.978 0.210303 120.318 0.0653076 120.709 0.0653076H121.423C121.813 0.0653076 122.153 0.210303 122.442 0.500293C122.731 0.790284 122.875 1.13145 122.875 1.52379V12.2961C122.875 13.6266 123.139 14.5904 123.665 15.1875C124.209 15.7675 125.05 16.0574 126.189 16.0574C127.327 16.0574 128.16 15.7675 128.686 15.1875C129.23 14.5904 129.502 13.6266 129.502 12.2961V1.52379C129.502 1.13145 129.646 0.790284 129.935 0.500293C130.224 0.210303 130.564 0.0653076 130.955 0.0653076H131.566C131.957 0.0653076 132.297 0.210303 132.586 0.500293C132.875 0.790284 133.019 1.13145 133.019 1.52379V12.0914Z" fill="#7044FF"/>
<path d="M137.941 18.7467C137.553 18.7467 137.215 18.6031 136.928 18.316C136.658 18.0289 136.523 17.6911 136.523 17.3027V1.69733C136.523 1.30889 136.658 0.97111 136.928 0.683999C137.215 0.396888 137.553 0.253333 137.941 0.253333H138.499C139.461 0.253333 140.171 0.675555 140.627 1.52L146.884 12.8187C146.884 12.8356 146.892 12.844 146.909 12.844C146.926 12.844 146.935 12.8356 146.935 12.8187V1.69733C146.935 1.30889 147.078 0.97111 147.365 0.683999C147.652 0.396888 147.99 0.253333 148.379 0.253333H148.936C149.324 0.253333 149.654 0.396888 149.924 0.683999C150.211 0.97111 150.355 1.30889 150.355 1.69733V17.3027C150.355 17.6911 150.211 18.0289 149.924 18.316C149.654 18.6031 149.324 18.7467 148.936 18.7467H148.379C147.416 18.7467 146.707 18.3244 146.251 17.48L139.993 6.18133C139.993 6.16444 139.985 6.156 139.968 6.156C139.951 6.156 139.943 6.16444 139.943 6.18133V17.3027C139.943 17.6911 139.799 18.0289 139.512 18.316C139.225 18.6031 138.887 18.7467 138.499 18.7467H137.941Z" fill="#7044FF"/>
<path d="M160.718 3.39467L158.489 11.3493C158.472 11.4 158.481 11.4507 158.514 11.5013C158.548 11.552 158.59 11.5773 158.641 11.5773H162.846C162.897 11.5773 162.939 11.552 162.973 11.5013C163.007 11.4507 163.015 11.4 162.998 11.3493L160.769 3.39467C160.769 3.37778 160.761 3.36933 160.744 3.36933C160.727 3.36933 160.718 3.37778 160.718 3.39467ZM154.157 18.7467C153.802 18.7467 153.524 18.6031 153.321 18.316C153.118 18.0289 153.076 17.7164 153.194 17.3787L158.438 1.62133C158.59 1.216 158.835 0.886666 159.173 0.633333C159.528 0.38 159.916 0.253333 160.338 0.253333H161.25C161.69 0.253333 162.078 0.38 162.416 0.633333C162.77 0.886666 163.015 1.216 163.15 1.62133L168.394 17.3787C168.513 17.7164 168.47 18.0289 168.268 18.316C168.065 18.6031 167.786 18.7467 167.432 18.7467H166.52C166.114 18.7467 165.734 18.62 165.38 18.3667C165.042 18.0964 164.814 17.7587 164.696 17.3533L163.885 14.4907C163.868 14.3556 163.775 14.288 163.606 14.288H157.881C157.729 14.288 157.636 14.3556 157.602 14.4907L156.792 17.3533C156.69 17.7587 156.462 18.0964 156.108 18.3667C155.77 18.62 155.39 18.7467 154.968 18.7467H154.157Z" fill="#7044FF"/>
<path d="M177.693 19C175.025 19 172.905 18.1809 171.334 16.5427C169.781 14.8876 169.004 12.54 169.004 9.5C169.004 6.49378 169.755 4.16311 171.258 2.508C172.778 0.836 174.898 0 177.617 0C178.867 0 179.914 0.076 180.758 0.228C181.164 0.295555 181.501 0.498221 181.772 0.836C182.042 1.17378 182.177 1.55378 182.177 1.976V2.17867C182.177 2.53333 182.025 2.812 181.721 3.01467C181.434 3.21733 181.121 3.27644 180.784 3.192C179.956 2.97244 179.027 2.86267 177.997 2.86267C176.325 2.86267 175.008 3.43689 174.045 4.58533C173.099 5.73378 172.626 7.372 172.626 9.5C172.626 11.6111 173.116 13.2493 174.096 14.4147C175.092 15.5631 176.418 16.1373 178.073 16.1373C179.188 16.1373 180.142 16.036 180.936 15.8333C181.273 15.7489 181.586 15.808 181.873 16.0107C182.177 16.2133 182.329 16.492 182.329 16.8467V17.024C182.329 17.4462 182.194 17.8262 181.924 18.164C181.67 18.4849 181.333 18.6791 180.91 18.7467C179.948 18.9156 178.875 19 177.693 19Z" fill="#7044FF"/>
<path d="M187.618 18.7467C187.23 18.7467 186.892 18.6031 186.605 18.316C186.335 18.0289 186.2 17.6911 186.2 17.3027V1.69733C186.2 1.30889 186.335 0.97111 186.605 0.683999C186.892 0.396888 187.23 0.253333 187.618 0.253333H188.302C188.691 0.253333 189.029 0.396888 189.316 0.683999C189.603 0.97111 189.746 1.30889 189.746 1.69733V7.448C189.746 7.58311 189.814 7.65067 189.949 7.65067H196.282C196.417 7.65067 196.485 7.58311 196.485 7.448V1.69733C196.485 1.30889 196.629 0.97111 196.916 0.683999C197.203 0.396888 197.541 0.253333 197.929 0.253333H198.613C199.001 0.253333 199.331 0.396888 199.601 0.683999C199.888 0.97111 200.032 1.30889 200.032 1.69733V17.3027C200.032 17.6911 199.888 18.0289 199.601 18.316C199.331 18.6031 199.001 18.7467 198.613 18.7467H197.929C197.541 18.7467 197.203 18.6031 196.916 18.316C196.629 18.0289 196.485 17.6911 196.485 17.3027V10.5893C196.485 10.4373 196.417 10.3613 196.282 10.3613H189.949C189.814 10.3613 189.746 10.4373 189.746 10.5893V17.3027C189.746 17.6911 189.603 18.0289 189.316 18.316C189.029 18.6031 188.691 18.7467 188.302 18.7467H187.618Z" fill="#7044FF"/>
</svg>
